<mxfile host="Electron" agent="Mozilla/5.0 (Windows NT 10.0; Win64; x64) AppleWebKit/537.36 (KHTML, like Gecko) draw.io/24.7.17 Chrome/128.0.6613.36 Electron/32.0.1 Safari/537.36" version="24.7.17">
  <diagram name="Page-1" id="We5Bzy_WnaOV0MsGGCXo">
    <mxGraphModel dx="2950" dy="2342" grid="1" gridSize="10" guides="1" tooltips="1" connect="1" arrows="1" fold="1" page="1" pageScale="1" pageWidth="850" pageHeight="1100" math="0" shadow="0">
      <root>
        <mxCell id="0" />
        <mxCell id="1" parent="0" />
        <mxCell id="IXpS0j50XbJXXRrO-PPm-3" value="" style="edgeStyle=orthogonalEdgeStyle;rounded=0;orthogonalLoop=1;jettySize=auto;html=1;" edge="1" parent="1" source="IXpS0j50XbJXXRrO-PPm-1" target="IXpS0j50XbJXXRrO-PPm-2">
          <mxGeometry relative="1" as="geometry" />
        </mxCell>
        <mxCell id="IXpS0j50XbJXXRrO-PPm-1" value="start" style="ellipse;whiteSpace=wrap;html=1;" vertex="1" parent="1">
          <mxGeometry y="-30" width="120" height="80" as="geometry" />
        </mxCell>
        <mxCell id="IXpS0j50XbJXXRrO-PPm-5" value="false" style="edgeStyle=orthogonalEdgeStyle;rounded=0;orthogonalLoop=1;jettySize=auto;html=1;" edge="1" parent="1" source="IXpS0j50XbJXXRrO-PPm-2" target="IXpS0j50XbJXXRrO-PPm-4">
          <mxGeometry relative="1" as="geometry" />
        </mxCell>
        <mxCell id="IXpS0j50XbJXXRrO-PPm-9" value="true" style="edgeStyle=orthogonalEdgeStyle;rounded=0;orthogonalLoop=1;jettySize=auto;html=1;" edge="1" parent="1" source="IXpS0j50XbJXXRrO-PPm-2" target="IXpS0j50XbJXXRrO-PPm-8">
          <mxGeometry relative="1" as="geometry" />
        </mxCell>
        <mxCell id="IXpS0j50XbJXXRrO-PPm-2" value="Registrasi" style="rhombus;whiteSpace=wrap;html=1;" vertex="1" parent="1">
          <mxGeometry x="20" y="160" width="80" height="80" as="geometry" />
        </mxCell>
        <mxCell id="IXpS0j50XbJXXRrO-PPm-7" value="false" style="edgeStyle=orthogonalEdgeStyle;rounded=0;orthogonalLoop=1;jettySize=auto;html=1;" edge="1" parent="1" source="IXpS0j50XbJXXRrO-PPm-4" target="IXpS0j50XbJXXRrO-PPm-6">
          <mxGeometry relative="1" as="geometry" />
        </mxCell>
        <mxCell id="IXpS0j50XbJXXRrO-PPm-12" value="true" style="edgeStyle=orthogonalEdgeStyle;rounded=0;orthogonalLoop=1;jettySize=auto;html=1;" edge="1" parent="1" source="IXpS0j50XbJXXRrO-PPm-4" target="IXpS0j50XbJXXRrO-PPm-11">
          <mxGeometry relative="1" as="geometry" />
        </mxCell>
        <mxCell id="IXpS0j50XbJXXRrO-PPm-4" value="Login" style="rhombus;whiteSpace=wrap;html=1;" vertex="1" parent="1">
          <mxGeometry x="400" y="160" width="80" height="80" as="geometry" />
        </mxCell>
        <mxCell id="IXpS0j50XbJXXRrO-PPm-123" value="true" style="edgeStyle=orthogonalEdgeStyle;rounded=0;orthogonalLoop=1;jettySize=auto;html=1;" edge="1" parent="1" source="IXpS0j50XbJXXRrO-PPm-6">
          <mxGeometry relative="1" as="geometry">
            <mxPoint x="1600" y="200" as="targetPoint" />
          </mxGeometry>
        </mxCell>
        <mxCell id="IXpS0j50XbJXXRrO-PPm-6" value="Keluar" style="rhombus;whiteSpace=wrap;html=1;" vertex="1" parent="1">
          <mxGeometry x="760" y="160" width="80" height="80" as="geometry" />
        </mxCell>
        <mxCell id="IXpS0j50XbJXXRrO-PPm-10" style="edgeStyle=orthogonalEdgeStyle;rounded=0;orthogonalLoop=1;jettySize=auto;html=1;" edge="1" parent="1" source="IXpS0j50XbJXXRrO-PPm-8">
          <mxGeometry relative="1" as="geometry">
            <mxPoint x="60" y="120" as="targetPoint" />
            <Array as="points">
              <mxPoint x="-40" y="320" />
            </Array>
          </mxGeometry>
        </mxCell>
        <mxCell id="IXpS0j50XbJXXRrO-PPm-8" value="buat akun" style="whiteSpace=wrap;html=1;" vertex="1" parent="1">
          <mxGeometry y="290" width="120" height="60" as="geometry" />
        </mxCell>
        <mxCell id="IXpS0j50XbJXXRrO-PPm-13" value="false" style="edgeStyle=orthogonalEdgeStyle;rounded=0;orthogonalLoop=1;jettySize=auto;html=1;" edge="1" parent="1" source="IXpS0j50XbJXXRrO-PPm-11">
          <mxGeometry relative="1" as="geometry">
            <mxPoint x="280" y="200.0000000000001" as="targetPoint" />
          </mxGeometry>
        </mxCell>
        <mxCell id="IXpS0j50XbJXXRrO-PPm-17" value="true" style="edgeStyle=orthogonalEdgeStyle;rounded=0;orthogonalLoop=1;jettySize=auto;html=1;" edge="1" parent="1" source="IXpS0j50XbJXXRrO-PPm-11" target="IXpS0j50XbJXXRrO-PPm-16">
          <mxGeometry relative="1" as="geometry" />
        </mxCell>
        <mxCell id="IXpS0j50XbJXXRrO-PPm-11" value="Input:&lt;div&gt;username&lt;/div&gt;&lt;div&gt;password&lt;/div&gt;" style="whiteSpace=wrap;html=1;" vertex="1" parent="1">
          <mxGeometry x="380" y="290" width="120" height="60" as="geometry" />
        </mxCell>
        <mxCell id="IXpS0j50XbJXXRrO-PPm-19" value="false" style="edgeStyle=orthogonalEdgeStyle;rounded=0;orthogonalLoop=1;jettySize=auto;html=1;" edge="1" parent="1" source="IXpS0j50XbJXXRrO-PPm-16" target="IXpS0j50XbJXXRrO-PPm-18">
          <mxGeometry relative="1" as="geometry" />
        </mxCell>
        <mxCell id="IXpS0j50XbJXXRrO-PPm-21" value="true" style="edgeStyle=orthogonalEdgeStyle;rounded=0;orthogonalLoop=1;jettySize=auto;html=1;" edge="1" parent="1" source="IXpS0j50XbJXXRrO-PPm-16" target="IXpS0j50XbJXXRrO-PPm-20">
          <mxGeometry relative="1" as="geometry" />
        </mxCell>
        <mxCell id="IXpS0j50XbJXXRrO-PPm-16" value="Login user" style="rhombus;whiteSpace=wrap;html=1;" vertex="1" parent="1">
          <mxGeometry x="580" y="280" width="80" height="80" as="geometry" />
        </mxCell>
        <mxCell id="IXpS0j50XbJXXRrO-PPm-23" value="true" style="edgeStyle=orthogonalEdgeStyle;rounded=0;orthogonalLoop=1;jettySize=auto;html=1;" edge="1" parent="1" source="IXpS0j50XbJXXRrO-PPm-18" target="IXpS0j50XbJXXRrO-PPm-22">
          <mxGeometry relative="1" as="geometry" />
        </mxCell>
        <mxCell id="IXpS0j50XbJXXRrO-PPm-18" value="Login Admin" style="rhombus;whiteSpace=wrap;html=1;" vertex="1" parent="1">
          <mxGeometry x="760" y="280" width="80" height="80" as="geometry" />
        </mxCell>
        <mxCell id="IXpS0j50XbJXXRrO-PPm-33" value="false" style="edgeStyle=orthogonalEdgeStyle;rounded=0;orthogonalLoop=1;jettySize=auto;html=1;" edge="1" parent="1" source="IXpS0j50XbJXXRrO-PPm-20" target="IXpS0j50XbJXXRrO-PPm-32">
          <mxGeometry relative="1" as="geometry" />
        </mxCell>
        <mxCell id="IXpS0j50XbJXXRrO-PPm-85" value="true" style="edgeStyle=orthogonalEdgeStyle;rounded=0;orthogonalLoop=1;jettySize=auto;html=1;" edge="1" parent="1" source="IXpS0j50XbJXXRrO-PPm-20" target="IXpS0j50XbJXXRrO-PPm-84">
          <mxGeometry relative="1" as="geometry" />
        </mxCell>
        <mxCell id="IXpS0j50XbJXXRrO-PPm-20" value="Pilih oshi" style="rhombus;whiteSpace=wrap;html=1;" vertex="1" parent="1">
          <mxGeometry x="580" y="440" width="80" height="80" as="geometry" />
        </mxCell>
        <mxCell id="IXpS0j50XbJXXRrO-PPm-25" value="false" style="edgeStyle=orthogonalEdgeStyle;rounded=0;orthogonalLoop=1;jettySize=auto;html=1;" edge="1" parent="1" source="IXpS0j50XbJXXRrO-PPm-22" target="IXpS0j50XbJXXRrO-PPm-24">
          <mxGeometry relative="1" as="geometry" />
        </mxCell>
        <mxCell id="IXpS0j50XbJXXRrO-PPm-49" value="true" style="edgeStyle=orthogonalEdgeStyle;rounded=0;orthogonalLoop=1;jettySize=auto;html=1;" edge="1" parent="1" source="IXpS0j50XbJXXRrO-PPm-22" target="IXpS0j50XbJXXRrO-PPm-48">
          <mxGeometry relative="1" as="geometry" />
        </mxCell>
        <mxCell id="IXpS0j50XbJXXRrO-PPm-22" value="Melihat list&lt;div&gt;akun&lt;/div&gt;" style="rhombus;whiteSpace=wrap;html=1;" vertex="1" parent="1">
          <mxGeometry x="760" y="440" width="80" height="80" as="geometry" />
        </mxCell>
        <mxCell id="IXpS0j50XbJXXRrO-PPm-27" value="false" style="edgeStyle=orthogonalEdgeStyle;rounded=0;orthogonalLoop=1;jettySize=auto;html=1;" edge="1" parent="1" source="IXpS0j50XbJXXRrO-PPm-24" target="IXpS0j50XbJXXRrO-PPm-26">
          <mxGeometry relative="1" as="geometry" />
        </mxCell>
        <mxCell id="IXpS0j50XbJXXRrO-PPm-54" value="true" style="edgeStyle=orthogonalEdgeStyle;rounded=0;orthogonalLoop=1;jettySize=auto;html=1;" edge="1" parent="1" source="IXpS0j50XbJXXRrO-PPm-24" target="IXpS0j50XbJXXRrO-PPm-53">
          <mxGeometry relative="1" as="geometry" />
        </mxCell>
        <mxCell id="IXpS0j50XbJXXRrO-PPm-24" value="Banned akun" style="rhombus;whiteSpace=wrap;html=1;" vertex="1" parent="1">
          <mxGeometry x="960" y="440" width="80" height="80" as="geometry" />
        </mxCell>
        <mxCell id="IXpS0j50XbJXXRrO-PPm-29" value="false" style="edgeStyle=orthogonalEdgeStyle;rounded=0;orthogonalLoop=1;jettySize=auto;html=1;" edge="1" parent="1" source="IXpS0j50XbJXXRrO-PPm-26" target="IXpS0j50XbJXXRrO-PPm-28">
          <mxGeometry relative="1" as="geometry" />
        </mxCell>
        <mxCell id="IXpS0j50XbJXXRrO-PPm-59" value="true" style="edgeStyle=orthogonalEdgeStyle;rounded=0;orthogonalLoop=1;jettySize=auto;html=1;" edge="1" parent="1" source="IXpS0j50XbJXXRrO-PPm-26" target="IXpS0j50XbJXXRrO-PPm-58">
          <mxGeometry relative="1" as="geometry" />
        </mxCell>
        <mxCell id="IXpS0j50XbJXXRrO-PPm-26" value="Menambahkan&lt;div&gt;list member&lt;/div&gt;" style="rhombus;whiteSpace=wrap;html=1;" vertex="1" parent="1">
          <mxGeometry x="1160" y="440" width="80" height="80" as="geometry" />
        </mxCell>
        <mxCell id="IXpS0j50XbJXXRrO-PPm-31" value="false" style="edgeStyle=orthogonalEdgeStyle;rounded=0;orthogonalLoop=1;jettySize=auto;html=1;" edge="1" parent="1" source="IXpS0j50XbJXXRrO-PPm-28" target="IXpS0j50XbJXXRrO-PPm-30">
          <mxGeometry relative="1" as="geometry" />
        </mxCell>
        <mxCell id="IXpS0j50XbJXXRrO-PPm-69" value="true" style="edgeStyle=orthogonalEdgeStyle;rounded=0;orthogonalLoop=1;jettySize=auto;html=1;" edge="1" parent="1" source="IXpS0j50XbJXXRrO-PPm-28" target="IXpS0j50XbJXXRrO-PPm-65">
          <mxGeometry relative="1" as="geometry" />
        </mxCell>
        <mxCell id="IXpS0j50XbJXXRrO-PPm-28" value="Menghapus List member dari akun" style="rhombus;whiteSpace=wrap;html=1;" vertex="1" parent="1">
          <mxGeometry x="1360" y="440" width="80" height="80" as="geometry" />
        </mxCell>
        <mxCell id="IXpS0j50XbJXXRrO-PPm-47" style="edgeStyle=orthogonalEdgeStyle;rounded=0;orthogonalLoop=1;jettySize=auto;html=1;" edge="1" parent="1" source="IXpS0j50XbJXXRrO-PPm-30">
          <mxGeometry relative="1" as="geometry">
            <mxPoint x="60" y="120" as="targetPoint" />
            <Array as="points">
              <mxPoint x="1600" y="120" />
            </Array>
          </mxGeometry>
        </mxCell>
        <mxCell id="IXpS0j50XbJXXRrO-PPm-122" style="edgeStyle=orthogonalEdgeStyle;rounded=0;orthogonalLoop=1;jettySize=auto;html=1;entryX=1;entryY=0.5;entryDx=0;entryDy=0;" edge="1" parent="1" source="IXpS0j50XbJXXRrO-PPm-30" target="IXpS0j50XbJXXRrO-PPm-119">
          <mxGeometry relative="1" as="geometry">
            <mxPoint x="1600.0000000000005" y="1250" as="targetPoint" />
            <Array as="points">
              <mxPoint x="1600" y="1240" />
            </Array>
          </mxGeometry>
        </mxCell>
        <mxCell id="IXpS0j50XbJXXRrO-PPm-30" value="Log Out" style="rhombus;whiteSpace=wrap;html=1;" vertex="1" parent="1">
          <mxGeometry x="1560" y="440" width="80" height="80" as="geometry" />
        </mxCell>
        <mxCell id="IXpS0j50XbJXXRrO-PPm-35" value="false" style="edgeStyle=orthogonalEdgeStyle;rounded=0;orthogonalLoop=1;jettySize=auto;html=1;" edge="1" parent="1" source="IXpS0j50XbJXXRrO-PPm-32" target="IXpS0j50XbJXXRrO-PPm-34">
          <mxGeometry relative="1" as="geometry" />
        </mxCell>
        <mxCell id="IXpS0j50XbJXXRrO-PPm-93" value="true" style="edgeStyle=orthogonalEdgeStyle;rounded=0;orthogonalLoop=1;jettySize=auto;html=1;" edge="1" parent="1" source="IXpS0j50XbJXXRrO-PPm-32" target="IXpS0j50XbJXXRrO-PPm-92">
          <mxGeometry relative="1" as="geometry" />
        </mxCell>
        <mxCell id="IXpS0j50XbJXXRrO-PPm-32" value="List Oshi" style="rhombus;whiteSpace=wrap;html=1;" vertex="1" parent="1">
          <mxGeometry x="380" y="440" width="80" height="80" as="geometry" />
        </mxCell>
        <mxCell id="IXpS0j50XbJXXRrO-PPm-37" value="false" style="edgeStyle=orthogonalEdgeStyle;rounded=0;orthogonalLoop=1;jettySize=auto;html=1;" edge="1" parent="1" source="IXpS0j50XbJXXRrO-PPm-34" target="IXpS0j50XbJXXRrO-PPm-36">
          <mxGeometry relative="1" as="geometry" />
        </mxCell>
        <mxCell id="IXpS0j50XbJXXRrO-PPm-96" value="true" style="edgeStyle=orthogonalEdgeStyle;rounded=0;orthogonalLoop=1;jettySize=auto;html=1;" edge="1" parent="1" source="IXpS0j50XbJXXRrO-PPm-34" target="IXpS0j50XbJXXRrO-PPm-95">
          <mxGeometry relative="1" as="geometry" />
        </mxCell>
        <mxCell id="IXpS0j50XbJXXRrO-PPm-34" value="Ganti Oshi" style="rhombus;whiteSpace=wrap;html=1;" vertex="1" parent="1">
          <mxGeometry x="180" y="440" width="80" height="80" as="geometry" />
        </mxCell>
        <mxCell id="IXpS0j50XbJXXRrO-PPm-39" value="false" style="edgeStyle=orthogonalEdgeStyle;rounded=0;orthogonalLoop=1;jettySize=auto;html=1;" edge="1" parent="1" source="IXpS0j50XbJXXRrO-PPm-36" target="IXpS0j50XbJXXRrO-PPm-38">
          <mxGeometry relative="1" as="geometry" />
        </mxCell>
        <mxCell id="IXpS0j50XbJXXRrO-PPm-125" value="true" style="edgeStyle=orthogonalEdgeStyle;rounded=0;orthogonalLoop=1;jettySize=auto;html=1;" edge="1" parent="1" source="IXpS0j50XbJXXRrO-PPm-36" target="IXpS0j50XbJXXRrO-PPm-106">
          <mxGeometry relative="1" as="geometry" />
        </mxCell>
        <mxCell id="IXpS0j50XbJXXRrO-PPm-36" value="Hapus oshi" style="rhombus;whiteSpace=wrap;html=1;" vertex="1" parent="1">
          <mxGeometry x="-20" y="440" width="80" height="80" as="geometry" />
        </mxCell>
        <mxCell id="IXpS0j50XbJXXRrO-PPm-41" value="false" style="edgeStyle=orthogonalEdgeStyle;rounded=0;orthogonalLoop=1;jettySize=auto;html=1;" edge="1" parent="1" source="IXpS0j50XbJXXRrO-PPm-38" target="IXpS0j50XbJXXRrO-PPm-40">
          <mxGeometry relative="1" as="geometry" />
        </mxCell>
        <mxCell id="IXpS0j50XbJXXRrO-PPm-112" value="true" style="edgeStyle=orthogonalEdgeStyle;rounded=0;orthogonalLoop=1;jettySize=auto;html=1;" edge="1" parent="1" source="IXpS0j50XbJXXRrO-PPm-38" target="IXpS0j50XbJXXRrO-PPm-111">
          <mxGeometry relative="1" as="geometry" />
        </mxCell>
        <mxCell id="IXpS0j50XbJXXRrO-PPm-38" value="LIat prestasi oshi" style="rhombus;whiteSpace=wrap;html=1;" vertex="1" parent="1">
          <mxGeometry x="-220" y="440" width="80" height="80" as="geometry" />
        </mxCell>
        <mxCell id="IXpS0j50XbJXXRrO-PPm-46" style="edgeStyle=orthogonalEdgeStyle;rounded=0;orthogonalLoop=1;jettySize=auto;html=1;" edge="1" parent="1" source="IXpS0j50XbJXXRrO-PPm-40">
          <mxGeometry relative="1" as="geometry">
            <mxPoint x="-40" y="120" as="targetPoint" />
            <Array as="points">
              <mxPoint x="-385" y="120" />
            </Array>
          </mxGeometry>
        </mxCell>
        <mxCell id="IXpS0j50XbJXXRrO-PPm-121" style="edgeStyle=orthogonalEdgeStyle;rounded=0;orthogonalLoop=1;jettySize=auto;html=1;" edge="1" parent="1" source="IXpS0j50XbJXXRrO-PPm-40" target="IXpS0j50XbJXXRrO-PPm-119">
          <mxGeometry relative="1" as="geometry">
            <mxPoint x="-384.9999999999998" y="1290" as="targetPoint" />
            <Array as="points">
              <mxPoint x="-385" y="1240" />
            </Array>
          </mxGeometry>
        </mxCell>
        <mxCell id="IXpS0j50XbJXXRrO-PPm-40" value="Log Out" style="rhombus;whiteSpace=wrap;html=1;" vertex="1" parent="1">
          <mxGeometry x="-425" y="440" width="80" height="80" as="geometry" />
        </mxCell>
        <mxCell id="IXpS0j50XbJXXRrO-PPm-52" value="" style="edgeStyle=orthogonalEdgeStyle;rounded=0;orthogonalLoop=1;jettySize=auto;html=1;" edge="1" parent="1" source="IXpS0j50XbJXXRrO-PPm-48" target="IXpS0j50XbJXXRrO-PPm-50">
          <mxGeometry relative="1" as="geometry" />
        </mxCell>
        <mxCell id="IXpS0j50XbJXXRrO-PPm-48" value="LIst akun" style="whiteSpace=wrap;html=1;" vertex="1" parent="1">
          <mxGeometry x="740" y="570" width="120" height="60" as="geometry" />
        </mxCell>
        <mxCell id="IXpS0j50XbJXXRrO-PPm-75" style="edgeStyle=orthogonalEdgeStyle;rounded=0;orthogonalLoop=1;jettySize=auto;html=1;" edge="1" parent="1" source="IXpS0j50XbJXXRrO-PPm-50">
          <mxGeometry relative="1" as="geometry">
            <mxPoint x="800" y="380" as="targetPoint" />
            <Array as="points">
              <mxPoint x="800" y="1040" />
              <mxPoint x="720" y="1040" />
              <mxPoint x="720" y="380" />
            </Array>
          </mxGeometry>
        </mxCell>
        <mxCell id="IXpS0j50XbJXXRrO-PPm-50" value="OUtput LIst akun" style="shape=parallelogram;perimeter=parallelogramPerimeter;whiteSpace=wrap;html=1;fixedSize=1;" vertex="1" parent="1">
          <mxGeometry x="740" y="690" width="120" height="60" as="geometry" />
        </mxCell>
        <mxCell id="IXpS0j50XbJXXRrO-PPm-51" value="" style="endArrow=classic;html=1;rounded=0;" edge="1" parent="1">
          <mxGeometry width="50" height="50" relative="1" as="geometry">
            <mxPoint x="840" y="740" as="sourcePoint" />
            <mxPoint x="890" y="740" as="targetPoint" />
          </mxGeometry>
        </mxCell>
        <mxCell id="IXpS0j50XbJXXRrO-PPm-56" value="" style="edgeStyle=orthogonalEdgeStyle;rounded=0;orthogonalLoop=1;jettySize=auto;html=1;" edge="1" parent="1" source="IXpS0j50XbJXXRrO-PPm-53" target="IXpS0j50XbJXXRrO-PPm-55">
          <mxGeometry relative="1" as="geometry" />
        </mxCell>
        <mxCell id="IXpS0j50XbJXXRrO-PPm-53" value="Pilih akun yg ingin&lt;div&gt;di ban&lt;/div&gt;" style="whiteSpace=wrap;html=1;" vertex="1" parent="1">
          <mxGeometry x="940" y="570" width="120" height="60" as="geometry" />
        </mxCell>
        <mxCell id="IXpS0j50XbJXXRrO-PPm-76" style="edgeStyle=orthogonalEdgeStyle;rounded=0;orthogonalLoop=1;jettySize=auto;html=1;" edge="1" parent="1" source="IXpS0j50XbJXXRrO-PPm-55">
          <mxGeometry relative="1" as="geometry">
            <mxPoint x="800" y="1040" as="targetPoint" />
            <Array as="points">
              <mxPoint x="1000" y="1040" />
            </Array>
          </mxGeometry>
        </mxCell>
        <mxCell id="IXpS0j50XbJXXRrO-PPm-55" value="Output Ban akun" style="shape=parallelogram;perimeter=parallelogramPerimeter;whiteSpace=wrap;html=1;fixedSize=1;" vertex="1" parent="1">
          <mxGeometry x="940" y="690" width="120" height="60" as="geometry" />
        </mxCell>
        <mxCell id="IXpS0j50XbJXXRrO-PPm-57" value="" style="endArrow=classic;html=1;rounded=0;" edge="1" parent="1">
          <mxGeometry width="50" height="50" relative="1" as="geometry">
            <mxPoint x="1040" y="740" as="sourcePoint" />
            <mxPoint x="1090" y="740" as="targetPoint" />
          </mxGeometry>
        </mxCell>
        <mxCell id="IXpS0j50XbJXXRrO-PPm-61" value="" style="edgeStyle=orthogonalEdgeStyle;rounded=0;orthogonalLoop=1;jettySize=auto;html=1;" edge="1" parent="1" source="IXpS0j50XbJXXRrO-PPm-58" target="IXpS0j50XbJXXRrO-PPm-60">
          <mxGeometry relative="1" as="geometry" />
        </mxCell>
        <mxCell id="IXpS0j50XbJXXRrO-PPm-58" value="Pilih akun" style="whiteSpace=wrap;html=1;" vertex="1" parent="1">
          <mxGeometry x="1140" y="570" width="120" height="60" as="geometry" />
        </mxCell>
        <mxCell id="IXpS0j50XbJXXRrO-PPm-63" value="" style="edgeStyle=orthogonalEdgeStyle;rounded=0;orthogonalLoop=1;jettySize=auto;html=1;" edge="1" parent="1" source="IXpS0j50XbJXXRrO-PPm-60" target="IXpS0j50XbJXXRrO-PPm-62">
          <mxGeometry relative="1" as="geometry" />
        </mxCell>
        <mxCell id="IXpS0j50XbJXXRrO-PPm-60" value="Pilih member yang ingin di tambahkan" style="whiteSpace=wrap;html=1;" vertex="1" parent="1">
          <mxGeometry x="1140" y="690" width="120" height="60" as="geometry" />
        </mxCell>
        <mxCell id="IXpS0j50XbJXXRrO-PPm-77" style="edgeStyle=orthogonalEdgeStyle;rounded=0;orthogonalLoop=1;jettySize=auto;html=1;" edge="1" parent="1" source="IXpS0j50XbJXXRrO-PPm-62">
          <mxGeometry relative="1" as="geometry">
            <mxPoint x="1000" y="1040" as="targetPoint" />
            <Array as="points">
              <mxPoint x="1200" y="1040" />
            </Array>
          </mxGeometry>
        </mxCell>
        <mxCell id="IXpS0j50XbJXXRrO-PPm-62" value="Output akun&lt;div&gt;dan member di pilih&lt;/div&gt;" style="shape=parallelogram;perimeter=parallelogramPerimeter;whiteSpace=wrap;html=1;fixedSize=1;" vertex="1" parent="1">
          <mxGeometry x="1140" y="810" width="120" height="60" as="geometry" />
        </mxCell>
        <mxCell id="IXpS0j50XbJXXRrO-PPm-64" value="" style="endArrow=classic;html=1;rounded=0;" edge="1" parent="1">
          <mxGeometry width="50" height="50" relative="1" as="geometry">
            <mxPoint x="1240" y="860" as="sourcePoint" />
            <mxPoint x="1290" y="860" as="targetPoint" />
          </mxGeometry>
        </mxCell>
        <mxCell id="IXpS0j50XbJXXRrO-PPm-68" value="" style="edgeStyle=orthogonalEdgeStyle;rounded=0;orthogonalLoop=1;jettySize=auto;html=1;" edge="1" parent="1" source="IXpS0j50XbJXXRrO-PPm-65" target="IXpS0j50XbJXXRrO-PPm-67">
          <mxGeometry relative="1" as="geometry" />
        </mxCell>
        <mxCell id="IXpS0j50XbJXXRrO-PPm-65" value="Pilih akun" style="whiteSpace=wrap;html=1;" vertex="1" parent="1">
          <mxGeometry x="1340" y="570" width="120" height="60" as="geometry" />
        </mxCell>
        <mxCell id="IXpS0j50XbJXXRrO-PPm-73" value="" style="edgeStyle=orthogonalEdgeStyle;rounded=0;orthogonalLoop=1;jettySize=auto;html=1;" edge="1" parent="1" source="IXpS0j50XbJXXRrO-PPm-67" target="IXpS0j50XbJXXRrO-PPm-72">
          <mxGeometry relative="1" as="geometry" />
        </mxCell>
        <mxCell id="IXpS0j50XbJXXRrO-PPm-67" value="Pilih member yang ingin di hapus" style="whiteSpace=wrap;html=1;" vertex="1" parent="1">
          <mxGeometry x="1340" y="690" width="120" height="60" as="geometry" />
        </mxCell>
        <mxCell id="IXpS0j50XbJXXRrO-PPm-78" style="edgeStyle=orthogonalEdgeStyle;rounded=0;orthogonalLoop=1;jettySize=auto;html=1;" edge="1" parent="1" source="IXpS0j50XbJXXRrO-PPm-72">
          <mxGeometry relative="1" as="geometry">
            <mxPoint x="1200" y="1040" as="targetPoint" />
            <Array as="points">
              <mxPoint x="1400" y="1040" />
            </Array>
          </mxGeometry>
        </mxCell>
        <mxCell id="IXpS0j50XbJXXRrO-PPm-72" value="Output oshi yang sudah di hapus" style="shape=parallelogram;perimeter=parallelogramPerimeter;whiteSpace=wrap;html=1;fixedSize=1;" vertex="1" parent="1">
          <mxGeometry x="1340" y="810" width="120" height="60" as="geometry" />
        </mxCell>
        <mxCell id="IXpS0j50XbJXXRrO-PPm-74" value="" style="endArrow=classic;html=1;rounded=0;" edge="1" parent="1">
          <mxGeometry width="50" height="50" relative="1" as="geometry">
            <mxPoint x="1440" y="860" as="sourcePoint" />
            <mxPoint x="1490" y="860" as="targetPoint" />
            <Array as="points">
              <mxPoint x="1460" y="860" />
            </Array>
          </mxGeometry>
        </mxCell>
        <mxCell id="IXpS0j50XbJXXRrO-PPm-88" value="" style="edgeStyle=orthogonalEdgeStyle;rounded=0;orthogonalLoop=1;jettySize=auto;html=1;" edge="1" parent="1" source="IXpS0j50XbJXXRrO-PPm-84" target="IXpS0j50XbJXXRrO-PPm-87">
          <mxGeometry relative="1" as="geometry" />
        </mxCell>
        <mxCell id="IXpS0j50XbJXXRrO-PPm-84" value="PIlih Gen" style="shape=parallelogram;perimeter=parallelogramPerimeter;whiteSpace=wrap;html=1;fixedSize=1;" vertex="1" parent="1">
          <mxGeometry x="560" y="570" width="120" height="60" as="geometry" />
        </mxCell>
        <mxCell id="IXpS0j50XbJXXRrO-PPm-86" value="" style="endArrow=classic;html=1;rounded=0;" edge="1" parent="1">
          <mxGeometry width="50" height="50" relative="1" as="geometry">
            <mxPoint x="520" y="610" as="sourcePoint" />
            <mxPoint x="570" y="610" as="targetPoint" />
          </mxGeometry>
        </mxCell>
        <mxCell id="IXpS0j50XbJXXRrO-PPm-90" value="" style="edgeStyle=orthogonalEdgeStyle;rounded=0;orthogonalLoop=1;jettySize=auto;html=1;" edge="1" parent="1" source="IXpS0j50XbJXXRrO-PPm-87" target="IXpS0j50XbJXXRrO-PPm-89">
          <mxGeometry relative="1" as="geometry" />
        </mxCell>
        <mxCell id="IXpS0j50XbJXXRrO-PPm-87" value="PIlih member" style="whiteSpace=wrap;html=1;" vertex="1" parent="1">
          <mxGeometry x="560" y="690" width="120" height="60" as="geometry" />
        </mxCell>
        <mxCell id="IXpS0j50XbJXXRrO-PPm-115" style="edgeStyle=orthogonalEdgeStyle;rounded=0;orthogonalLoop=1;jettySize=auto;html=1;" edge="1" parent="1" source="IXpS0j50XbJXXRrO-PPm-89">
          <mxGeometry relative="1" as="geometry">
            <mxPoint x="620" y="380" as="targetPoint" />
            <Array as="points">
              <mxPoint x="620" y="1040" />
              <mxPoint x="710" y="1040" />
              <mxPoint x="710" y="380" />
            </Array>
          </mxGeometry>
        </mxCell>
        <mxCell id="IXpS0j50XbJXXRrO-PPm-89" value="Output member&lt;div&gt;yang dipilih&lt;/div&gt;" style="shape=parallelogram;perimeter=parallelogramPerimeter;whiteSpace=wrap;html=1;fixedSize=1;" vertex="1" parent="1">
          <mxGeometry x="560" y="810" width="120" height="60" as="geometry" />
        </mxCell>
        <mxCell id="IXpS0j50XbJXXRrO-PPm-91" value="" style="endArrow=classic;html=1;rounded=0;" edge="1" parent="1">
          <mxGeometry width="50" height="50" relative="1" as="geometry">
            <mxPoint x="660" y="860" as="sourcePoint" />
            <mxPoint x="710" y="860" as="targetPoint" />
          </mxGeometry>
        </mxCell>
        <mxCell id="IXpS0j50XbJXXRrO-PPm-92" value="Output List oshi&lt;div&gt;yang di pilih&lt;/div&gt;" style="shape=parallelogram;perimeter=parallelogramPerimeter;whiteSpace=wrap;html=1;fixedSize=1;" vertex="1" parent="1">
          <mxGeometry x="360" y="570" width="120" height="60" as="geometry" />
        </mxCell>
        <mxCell id="IXpS0j50XbJXXRrO-PPm-94" value="" style="endArrow=classic;html=1;rounded=0;" edge="1" parent="1">
          <mxGeometry width="50" height="50" relative="1" as="geometry">
            <mxPoint x="460" y="620" as="sourcePoint" />
            <mxPoint x="510" y="620" as="targetPoint" />
          </mxGeometry>
        </mxCell>
        <mxCell id="IXpS0j50XbJXXRrO-PPm-99" value="" style="edgeStyle=orthogonalEdgeStyle;rounded=0;orthogonalLoop=1;jettySize=auto;html=1;" edge="1" parent="1" source="IXpS0j50XbJXXRrO-PPm-95" target="IXpS0j50XbJXXRrO-PPm-98">
          <mxGeometry relative="1" as="geometry" />
        </mxCell>
        <mxCell id="IXpS0j50XbJXXRrO-PPm-95" value="Oshi" style="shape=parallelogram;perimeter=parallelogramPerimeter;whiteSpace=wrap;html=1;fixedSize=1;" vertex="1" parent="1">
          <mxGeometry x="160" y="570" width="120" height="60" as="geometry" />
        </mxCell>
        <mxCell id="IXpS0j50XbJXXRrO-PPm-97" value="" style="endArrow=classic;html=1;rounded=0;" edge="1" parent="1">
          <mxGeometry width="50" height="50" relative="1" as="geometry">
            <mxPoint x="260" y="620" as="sourcePoint" />
            <mxPoint x="310" y="620" as="targetPoint" />
          </mxGeometry>
        </mxCell>
        <mxCell id="IXpS0j50XbJXXRrO-PPm-101" value="" style="edgeStyle=orthogonalEdgeStyle;rounded=0;orthogonalLoop=1;jettySize=auto;html=1;" edge="1" parent="1" source="IXpS0j50XbJXXRrO-PPm-98" target="IXpS0j50XbJXXRrO-PPm-100">
          <mxGeometry relative="1" as="geometry" />
        </mxCell>
        <mxCell id="IXpS0j50XbJXXRrO-PPm-98" value="Pilih Oshi yang ingin di ganti" style="whiteSpace=wrap;html=1;" vertex="1" parent="1">
          <mxGeometry x="160" y="690" width="120" height="60" as="geometry" />
        </mxCell>
        <mxCell id="IXpS0j50XbJXXRrO-PPm-104" value="" style="edgeStyle=orthogonalEdgeStyle;rounded=0;orthogonalLoop=1;jettySize=auto;html=1;" edge="1" parent="1" source="IXpS0j50XbJXXRrO-PPm-100" target="IXpS0j50XbJXXRrO-PPm-103">
          <mxGeometry relative="1" as="geometry" />
        </mxCell>
        <mxCell id="IXpS0j50XbJXXRrO-PPm-100" value="PIlih oshi baru" style="shape=parallelogram;perimeter=parallelogramPerimeter;whiteSpace=wrap;html=1;fixedSize=1;" vertex="1" parent="1">
          <mxGeometry x="160" y="810" width="120" height="60" as="geometry" />
        </mxCell>
        <mxCell id="IXpS0j50XbJXXRrO-PPm-102" value="" style="endArrow=classic;html=1;rounded=0;" edge="1" parent="1">
          <mxGeometry width="50" height="50" relative="1" as="geometry">
            <mxPoint x="120" y="850" as="sourcePoint" />
            <mxPoint x="170" y="850" as="targetPoint" />
          </mxGeometry>
        </mxCell>
        <mxCell id="IXpS0j50XbJXXRrO-PPm-116" style="edgeStyle=orthogonalEdgeStyle;rounded=0;orthogonalLoop=1;jettySize=auto;html=1;" edge="1" parent="1" source="IXpS0j50XbJXXRrO-PPm-103">
          <mxGeometry relative="1" as="geometry">
            <mxPoint x="620" y="1040" as="targetPoint" />
            <Array as="points">
              <mxPoint x="220" y="1040" />
            </Array>
          </mxGeometry>
        </mxCell>
        <mxCell id="IXpS0j50XbJXXRrO-PPm-103" value="Output oshi ganti" style="shape=parallelogram;perimeter=parallelogramPerimeter;whiteSpace=wrap;html=1;fixedSize=1;" vertex="1" parent="1">
          <mxGeometry x="160" y="930" width="120" height="60" as="geometry" />
        </mxCell>
        <mxCell id="IXpS0j50XbJXXRrO-PPm-105" value="" style="endArrow=classic;html=1;rounded=0;" edge="1" parent="1">
          <mxGeometry width="50" height="50" relative="1" as="geometry">
            <mxPoint x="260" y="980" as="sourcePoint" />
            <mxPoint x="310" y="980" as="targetPoint" />
          </mxGeometry>
        </mxCell>
        <mxCell id="IXpS0j50XbJXXRrO-PPm-109" value="" style="edgeStyle=orthogonalEdgeStyle;rounded=0;orthogonalLoop=1;jettySize=auto;html=1;" edge="1" parent="1" source="IXpS0j50XbJXXRrO-PPm-106" target="IXpS0j50XbJXXRrO-PPm-108">
          <mxGeometry relative="1" as="geometry" />
        </mxCell>
        <mxCell id="IXpS0j50XbJXXRrO-PPm-106" value="Pilih oshi yang ingin di hapus" style="whiteSpace=wrap;html=1;" vertex="1" parent="1">
          <mxGeometry x="-40" y="570" width="120" height="60" as="geometry" />
        </mxCell>
        <mxCell id="IXpS0j50XbJXXRrO-PPm-117" style="edgeStyle=orthogonalEdgeStyle;rounded=0;orthogonalLoop=1;jettySize=auto;html=1;" edge="1" parent="1" source="IXpS0j50XbJXXRrO-PPm-108">
          <mxGeometry relative="1" as="geometry">
            <mxPoint x="220" y="1040" as="targetPoint" />
            <Array as="points">
              <mxPoint x="20" y="1040" />
            </Array>
          </mxGeometry>
        </mxCell>
        <mxCell id="IXpS0j50XbJXXRrO-PPm-108" value="Otput Oshi yang di hapus" style="shape=parallelogram;perimeter=parallelogramPerimeter;whiteSpace=wrap;html=1;fixedSize=1;" vertex="1" parent="1">
          <mxGeometry x="-40" y="690" width="120" height="60" as="geometry" />
        </mxCell>
        <mxCell id="IXpS0j50XbJXXRrO-PPm-110" value="" style="endArrow=classic;html=1;rounded=0;" edge="1" parent="1">
          <mxGeometry width="50" height="50" relative="1" as="geometry">
            <mxPoint x="60" y="740" as="sourcePoint" />
            <mxPoint x="110" y="740" as="targetPoint" />
          </mxGeometry>
        </mxCell>
        <mxCell id="IXpS0j50XbJXXRrO-PPm-118" style="edgeStyle=orthogonalEdgeStyle;rounded=0;orthogonalLoop=1;jettySize=auto;html=1;" edge="1" parent="1" source="IXpS0j50XbJXXRrO-PPm-111">
          <mxGeometry relative="1" as="geometry">
            <mxPoint x="20" y="1040" as="targetPoint" />
            <Array as="points">
              <mxPoint x="-180" y="1040" />
            </Array>
          </mxGeometry>
        </mxCell>
        <mxCell id="IXpS0j50XbJXXRrO-PPm-111" value="Output prestasi Oshi" style="shape=parallelogram;perimeter=parallelogramPerimeter;whiteSpace=wrap;html=1;fixedSize=1;" vertex="1" parent="1">
          <mxGeometry x="-240" y="570" width="120" height="60" as="geometry" />
        </mxCell>
        <mxCell id="IXpS0j50XbJXXRrO-PPm-113" value="" style="endArrow=classic;html=1;rounded=0;" edge="1" parent="1">
          <mxGeometry width="50" height="50" relative="1" as="geometry">
            <mxPoint x="-140" y="620" as="sourcePoint" />
            <mxPoint x="-90" y="620" as="targetPoint" />
          </mxGeometry>
        </mxCell>
        <mxCell id="IXpS0j50XbJXXRrO-PPm-119" value="End" style="ellipse;whiteSpace=wrap;html=1;" vertex="1" parent="1">
          <mxGeometry y="1200" width="120" height="80" as="geometry" />
        </mxCell>
      </root>
    </mxGraphModel>
  </diagram>
</mxfile>
